<?xml version="1.0" standalone="no"?>
<!DOCTYPE svg PUBLIC "-//W3C//DTD SVG 20010904//EN"
 "http://www.w3.org/TR/2001/REC-SVG-20010904/DTD/svg10.dtd">
<svg version="1.0" xmlns="http://www.w3.org/2000/svg"
 width="464.000000pt" height="464.000000pt" viewBox="0 0 464.000000 464.000000"
 preserveAspectRatio="xMidYMid meet">
<metadata>
Created by potrace 1.14, written by Peter Selinger 2001-2017
</metadata>
<g transform="translate(0.000000,464.000000) scale(0.100000,-0.100000)"
fill="#000000" stroke="none">
<path d="M498 4552 l-148 -86 0 -171 0 -170 85 -49 85 -48 0 -1337 0 -1337
895 -672 c492 -370 899 -672 905 -672 6 0 413 302 905 672 l895 672 0 1337 0
1337 85 48 85 48 0 171 0 171 -107 62 c-60 34 -126 73 -149 86 l-40 25 -140
-80 c-76 -45 -144 -85 -149 -89 -6 -5 -10 -76 -10 -176 l1 -168 84 -51 85 -50
0 -1269 c1 -861 -3 -1272 -10 -1281 -5 -7 -353 -270 -772 -584 l-762 -573
-773 581 -774 581 1 1272 0 1272 50 30 c28 16 66 39 85 51 l36 22 -1 169 0
169 -85 51 c-47 28 -114 66 -150 86 l-65 36 -147 -86z"/>
<path d="M3040 3764 c-119 -69 -146 -89 -148 -109 l-3 -25 -837 0 -838 0 0
-125 -1 -125 839 0 838 0 0 -23 c0 -19 26 -37 149 -109 l148 -85 144 83 c79
46 146 90 149 98 9 25 3 327 -6 336 -8 7 -229 136 -274 160 -10 5 -62 -20
-160 -76z"/>
<path d="M1947 2824 l-147 -86 2 -171 3 -171 140 -83 c77 -45 145 -82 150 -82
6 -1 76 37 155 83 105 60 145 89 145 102 0 18 16 19 388 22 213 1 387 -1 388
-5 4 -35 3 -507 -1 -512 -3 -4 -195 -150 -427 -325 l-422 -317 -423 317 c-233
174 -425 319 -427 320 -2 2 -4 145 -4 316 0 172 -3 318 -7 323 -7 8 -130 11
-231 6 -13 -1 -15 -44 -15 -385 1 -211 3 -386 6 -389 3 -2 68 -51 145 -108 77
-57 145 -107 150 -112 79 -68 800 -597 809 -595 7 2 258 187 558 412 l544 408
0 449 0 449 -516 0 -516 0 -2 27 c-1 14 -3 27 -5 28 -14 10 -286 165 -289 165
-2 0 -69 -39 -151 -86z"/>
</g>
</svg>
